<svg xmlns="http://www.w3.org/2000/svg" width="100" height="100" viewBox="0 0 100 100">
  <g fill="#B76E79" opacity="0.3">
    <path d="M20,20 C25,15 35,15 40,20 C45,25 45,35 40,40 C35,45 25,45 20,40 C15,35 15,25 20,20 Z" />
    <path d="M60,20 C65,15 75,15 80,20 C85,25 85,35 80,40 C75,45 65,45 60,40 C55,35 55,25 60,20 Z" />
    <path d="M20,60 C25,55 35,55 40,60 C45,65 45,75 40,80 C35,85 25,85 20,80 C15,75 15,65 20,60 Z" />
    <path d="M60,60 C65,55 75,55 80,60 C85,65 85,75 80,80 C75,85 65,85 60,80 C55,75 55,65 60,60 Z" />
    <path d="M40,40 C45,35 55,35 60,40 C65,45 65,55 60,60 C55,65 45,65 40,60 C35,55 35,45 40,40 Z" />
    <circle cx="10" cy="10" r="3" />
    <circle cx="90" cy="10" r="3" />
    <circle cx="10" cy="90" r="3" />
    <circle cx="90" cy="90" r="3" />
    <circle cx="50" cy="10" r="3" />
    <circle cx="10" cy="50" r="3" />
    <circle cx="90" cy="50" r="3" />
    <circle cx="50" cy="90" r="3" />
  </g>
</svg>