<svg xmlns="http://www.w3.org/2000/svg" width="200" height="80" viewBox="0 0 200 80">
  <path d="M20,50 C30,30 40,60 50,40 C60,20 65,50 75,40 C85,30 90,50 100,40 C110,30 120,50 130,30 C140,10 150,40 160,30 C170,20 180,40 190,30" stroke="#a86e7c" stroke-width="2" fill="none" stroke-linecap="round" />
  <path d="M30,60 C40,50 50,70 60,50 C70,30 80,60 90,50 C100,40 110,60 120,40" stroke="#a86e7c" stroke-width="1.5" fill="none" stroke-linecap="round" />
  <text x="160" y="70" font-family="'Cormorant Garamond', serif" font-size="12" text-anchor="end" fill="#a86e7c">Lulit</text>
</svg>